/* XPM */
static char *result[] = {
/* columns rows colors chars-per-pixel */
"16 16 119 2 ",
"   c #0E1147",
".  c #0C1348",
"X  c #0A164E",
"o  c #09184B",
"O  c #081E4C",
"+  c #131042",
"@  c #131142",
"#  c #141143",
"$  c #101044",
"%  c #161045",
"&  c #151245",
"*  c #141347",
"=  c #11114A",
"-  c #161148",
";  c #14154C",
":  c #12184A",
">  c #121E4F",
",  c #1D1058",
"<  c #21115B",
"1  c #092250",
"2  c #092152",
"3  c #0A2859",
"4  c #0B2C5F",
"5  c #132A56",
"6  c #122658",
"7  c #0C305F",
"8  c #13335D",
"9  c #171F67",
"0  c #340F75",
"q  c #350F76",
"w  c #0A2064",
"e  c #0C3261",
"r  c #0E3663",
"t  c #0D3767",
"y  c #0B316F",
"u  c #133C63",
"i  c #133965",
"p  c #143B66",
"a  c #153F68",
"s  c #133974",
"d  c #174167",
"f  c #174168",
"g  c #16446C",
"h  c #16446D",
"j  c #301183",
"k  c #3C108B",
"l  c #1A2F8C",
"z  c #0C3289",
"x  c #0D3B8F",
"c  c #102793",
"v  c #173C91",
"b  c #232395",
"n  c #2F1CA4",
"m  c #371FBC",
"M  c #3F1BBD",
"N  c #172CB1",
"B  c #2A22A8",
"V  c #2925BF",
"C  c #4016A8",
"Z  c #4F18B8",
"A  c #5915BD",
"S  c #5619BF",
"D  c #135080",
"F  c #175782",
"G  c #0E56AB",
"H  c #165EA8",
"J  c #0B46B9",
"K  c #1875A1",
"L  c #1978A2",
"P  c #126DBF",
"I  c #147CB3",
"U  c #3B17D6",
"Y  c #1F2BC5",
"T  c #143CC1",
"R  c #1A39C7",
"E  c #2236C6",
"W  c #262BDE",
"Q  c #3727DF",
"!  c #213FE3",
"~  c #4B0CC9",
"^  c #5710C2",
"/  c #4F16D7",
"(  c #1044C2",
")  c #1B46CE",
"_  c #175CCF",
"`  c #1349D1",
"'  c #1143D8",
"]  c #135BDD",
"[  c #2646C7",
"{  c #0E6DC7",
"}  c #106DC8",
"|  c #1063D7",
" . c #1555E4",
".. c #115AE6",
"X. c #1A65ED",
"o. c #146DEB",
"O. c #1072E8",
"+. c #1073E9",
"@. c #1272EA",
"#. c #2968EC",
"$. c #287FE8",
"%. c #1985B2",
"&. c #168AC6",
"*. c #1187CD",
"=. c #1381D2",
"-. c #148BD4",
";. c #159FDE",
":. c #15A2DE",
">. c #18A2DB",
",. c #1085E2",
"<. c #1E84E7",
"1. c #148BE6",
"2. c #148BE8",
"3. c #178AE8",
"4. c #1190E4",
"5. c #1198ED",
"6. c #14ABF1",
"7. c #24BEF0",
"8. c None",
/* pixels */
"8.8.8.8.8.f h a p i 8 8.8.8.8.8.",
"8.8.8.d F %.&.-.=.P H s 5 8.8.8.",
"8.8.g L >.8.8.8.8.8.8._ v 6 8.8.",
"8.u K ;.8.8.8.8.8.8.8.8.) l > 8.",
"8.D :.8.8.7.8.8.8.$.#.[ 8.E 9 8.",
"r I 8.8.8.6.8.8.<.X.R 8.8.8.b : ",
"t *.8.8.8.5.8.3.o.T 8.8.8.8.B ; ",
"e 4.8.8.8.{ 1.@.( 8.8.8.8.8.m * ",
"7 ,.8.8.8.2.+. .! 8.8.8.8.8.M & ",
"4 } 8.8.8.O.J 8.W Q 8.8.8.8.C - ",
"3 G 8.8.8...8.8.8.U / 8.8.8.k # ",
"8.y | 8.8.' 8.8.8.8.~ ^ 8.A < 8.",
"8.1 x ] 8.8.8.8.8.8.8.8.S q @ 8.",
"8.8.2 z ` 8.8.8.8.8.8.Z 0 % 8.8.",
"8.8.8.O w c N Y V n j , + 8.8.8.",
"8.8.8.8.8.o X .   = $ 8.8.8.8.8."
};
