/* XPM */
static char *result[] = {
/* columns rows colors chars-per-pixel */
"32 32 210 2 ",
"   c #0D0F2A",
".  c #0D112D",
"X  c #0C1131",
"o  c #091F3A",
"O  c #091737",
"+  c #101433",
"@  c #12113D",
"#  c #101934",
"$  c #14243F",
"%  c #0C1245",
"&  c #0D1249",
"*  c #091C4D",
"=  c #081B41",
"-  c #141145",
";  c #14114C",
":  c #1A114D",
">  c #121B46",
",  c #091A53",
"<  c #0C1955",
"1  c #1C1152",
"2  c #131B55",
"3  c #16115A",
"4  c #1B125C",
"5  c #161B5C",
"6  c #171150",
"7  c #260F59",
"8  c #281059",
"9  c #0B2343",
"0  c #09234B",
"q  c #0C294B",
"w  c #142644",
"e  c #142A44",
"r  c #12234E",
"t  c #1A324C",
"y  c #0B2B5D",
"u  c #0A275B",
"i  c #132650",
"p  c #0E315D",
"a  c #163459",
"s  c #163759",
"d  c #1F0F61",
"f  c #0B1C61",
"g  c #0D1968",
"h  c #161561",
"j  c #191A66",
"k  c #300F67",
"l  c #291067",
"z  c #2F0E70",
"x  c #370F77",
"c  c #27107C",
"v  c #0A2465",
"b  c #0A2B6B",
"n  c #0B2966",
"m  c #15246B",
"M  c #122A6D",
"N  c #0C3365",
"B  c #0F3B6B",
"V  c #0B336D",
"C  c #153D62",
"Z  c #12346C",
"A  c #123C6B",
"S  c #153260",
"D  c #0C2F7E",
"F  c #0C3776",
"G  c #133172",
"H  c #143578",
"J  c #172C7A",
"K  c #14426D",
"L  c #184267",
"P  c #0F477D",
"I  c #124276",
"U  c #154B75",
"Y  c #144D7C",
"T  c #13447A",
"R  c #15507E",
"E  c #131E89",
"W  c #351184",
"Q  c #2C1297",
"!  c #3E129F",
"~  c #251D89",
"^  c #0D2782",
"/  c #1D2485",
"(  c #0E3583",
")  c #0C259C",
"_  c #083198",
"`  c #171FA2",
"'  c #1D1FB6",
"]  c #2E1DA3",
"[  c #3F0DB9",
"{  c #2A18B7",
"}  c #381CB9",
"|  c #0D2DAA",
" . c #0D2EA6",
".. c #122BAA",
"X. c #1829B2",
"o. c #0E36B3",
"O. c #1338BE",
"+. c #0A37A7",
"@. c #2929BC",
"#. c #2438BE",
"$. c #4D0D9F",
"%. c #440EA4",
"&. c #530EAA",
"*. c #540DBD",
"=. c #5E0DB6",
"-. c #4416B8",
";. c #5216BE",
":. c #610EBB",
">. c #0E4689",
",. c #14488A",
"<. c #145282",
"1. c #195D85",
"2. c #13558A",
"3. c #0E4999",
"4. c #186892",
"5. c #0A4FAC",
"6. c #0F5DA8",
"7. c #0B5DBF",
"8. c #0A57B3",
"9. c #2741B8",
"0. c #1562A3",
"q. c #1979A5",
"w. c #1478B6",
"e. c #261EC3",
"r. c #3916C2",
"t. c #371CDD",
"y. c #1F25CA",
"u. c #1435CC",
"i. c #1A3CC4",
"p. c #1A3BD3",
"a. c #2B28C1",
"s. c #3B24C3",
"d. c #322FCA",
"f. c #3829D8",
"g. c #293AD4",
"h. c #1F3EE8",
"j. c #2C29E3",
"k. c #3427E2",
"l. c #2636E6",
"z. c #4B0CC3",
"x. c #441CC2",
"c. c #4C1AC6",
"v. c #5918C7",
"b. c #4D0ED6",
"n. c #4216DC",
"m. c #4C15DA",
"M. c #5B14D5",
"N. c #550DD5",
"B. c #5523CD",
"V. c #5420C7",
"C. c #452BC9",
"Z. c #0F5ACF",
"A. c #1657C9",
"S. c #0F40D1",
"D. c #154AD8",
"F. c #135DDE",
"G. c #1456DE",
"H. c #2449DC",
"J. c #0E67C5",
"K. c #0F7ECF",
"L. c #1873CF",
"P. c #106ED4",
"I. c #1267D9",
"U. c #1174D8",
"Y. c #134FE3",
"T. c #1947E5",
"R. c #125CE6",
"E. c #1C5CEC",
"W. c #1957EA",
"Q. c #204FEC",
"!. c #2156E4",
"~. c #0F61E3",
"^. c #1065E6",
"/. c #1266EA",
"(. c #156FEB",
"). c #1A6BEE",
"_. c #1A65E6",
"`. c #0F72E8",
"'. c #1274EA",
"]. c #117DEB",
"[. c #1675E6",
"{. c #3066E8",
"}. c #327AEA",
"|. c #1890C2",
" X c #138CD3",
".X c #1187DB",
"XX c #149ADE",
"oX c #1BA7D7",
"OX c #34BFDE",
"+X c #1080EB",
"@X c #128CEB",
"#X c #1D8EEA",
"$X c #1488E3",
"%X c #1492E3",
"&X c #159DE2",
"*X c #1493EB",
"=X c #129CED",
"-X c #109EF1",
";X c #2589EA",
":X c #3187E3",
">X c #16A6E3",
",X c #16A6EA",
"<X c #1AB6EB",
"1X c #14A9F1",
"2X c #17B9F3",
"3X c #21BFE8",
"4X c #1BC1EE",
"5X c #1BC4F2",
"6X c #33C3EC",
"7X c None",
/* pixels */
"7X7X7X7X7X7X7X7X7X7X7X7Xt t s s C s e $ 7X7X7X7X7X7X7X7X7X7X7X7X",
"7X7X7X7X7X7X7X7X7Xt L U <.1.U K A I ,.I A a w 7X7X7X7X7X7X7X7X7X",
"7X7X7X7X7X7X7Xt L R R 1.q.|.oX>X&X Xw.0.T G H a $ 7X7X7X7X7X7X7X",
"7X7X7X7X7X7Xs <.R q.oX2X&XK.J.Z.7.J.J.U.#XL.,.Z G w 7X7X7X7X7X7X",
"7X7X7X7X7XL <.1.oX2X X7X7X7X7X7X7X7X7X7X7XA.(.A.G G i 7X7X7X7X7X",
"7X7X7X7XL R 4.4X&X7X7X7X7X7X7X7X7X7X7X7X7X7X7XA.!.H M r 7X7X7X7X",
"7X7X7Xs <.4.5X X7X7X7X7X7X7X7X7X7X7X7X7X7X7X7X7XS.!.J m > 7X7X7X",
"7X7Xe Y 1.4X X7X7X7X7X7X7X7X7X7X7X7X7X7X7X7X7X7X7XO.H.m m # 7X7X",
"7X7XA U oX&X7X7X7XOX6X6X7X7X7X7X7X7X7X:X}.}.{.9.7X7Xi.a.m 2 7X7X",
"7Xe P q.<X7X7X7X7X3X2X2X7X7X7X7X7X7X;X).!.Q.X.7X7X7X7Xg.J j # 7X",
"7XB B >X.X7X7X7X7X<X2X1X7X7X7X7X7X;X(.).Q.X.7X7X7X7X7X#.@.4 > 7X",
"7XB 4.1X7X7X7X7X7X<X1X1X7X7X7X7X#X(.).E.X.7X7X7X7X7X7X7Xd.j 5 7X",
"9 >.w.%X7X7X7X7X7X>X,X*X7X7X7X#X].).E...7X7X7X7X7X7X7X7Xa.~ j . ",
"q F  X.X7X7X7X7X7X>X=X@X7X7X#X].)._.| 7X7X7X7X7X7X7X7X7Xa.] j . ",
"p N ,X7X7X7X7X7X7X&X@X5.7X*X].'./.| 7X7X7X7X7X7X7X7X7X7X@.} : @ ",
"N p -X7X7X7X7X7X7X%X8.7X*X].'./.o.7X7X7X7X7X7X7X7X7X7X7X7Xx.- - ",
"N p =X7X7X7X7X7X7X6.7X*X+X`./.W.Q.7X7X7X7X7X7X7X7X7X7X7X7X-.: - ",
"y p @X7X7X7X7X7X7X7X*X+X`.~.D.T.l.l.7X7X7X7X7X7X7X7X7X7Xs.-.: @ ",
"0 V U.P.7X7X7X7X7X%X+X`.~._ 7Xu.l.j.k.7X7X7X7X7X7X7X7X7Xx.! 4 . ",
"o F 6.U.7X7X7X7X7X$X`./.+.7X7X7Xy.k.k.f.7X7X7X7X7X7X7X7Xc.W 4   ",
"7Xn >.`.7X7X7X7X7XU./.R.o.7X7X7X7Xe.t.n.n.7X7X7X7X7X7X7Xv.l 6 7X",
"7Xy y U.I.7X7X7X7X[.R.Y.| 7X7X7X7X7Xr.n.m.M.7X7X7X7X7Xv.&.: - 7X",
"7Xo b 3.^.7X7X7X7XI.Y.T.| 7X7X7X7X7X7Xr.b.N.M.7X7X7X7Xv.x 4 . 7X",
"7X7Xu n Z.I.7X7X7XZ.S.u.) 7X7X7X7X7X7X7Xr.z.z.:.7X7Xv.&.7 - 7X7X",
"7X7Xo n V R.I.7X7X7X7X7X7X7X7X7X7X7X7X7X7X7X7X7X7XB.:.8 4 . 7X7X",
"7X7X7X9 v ( G.R.7X7X7X7X7X7X7X7X7X7X7X7X7X7X7X7XB.:.k h + 7X7X7X",
"7X7X7X7X0 v D D.R.7X7X7X7X7X7X7X7X7X7X7X7X7X7XV.=.k 7 @ 7X7X7X7X",
"7X7X7X7X7X* v n O.D.Y.7X7X7X7X7X7X7X7X7X7XC.;.$.8 h @ 7X7X7X7X7X",
"7X7X7X7X7X7X= v , ^ O.u.p.p.D.7X7Xg.d.s.-.%.z : 4 + 7X7X7X7X7X7X",
"7X7X7X7X7X7X7XO u < < g ^ ` { e.{ { Q c d ; 3 ;   7X7X7X7X7X7X7X",
"7X7X7X7X7X7X7X7X7XO , < g g & & & & h 3 ; -   7X7X7X7X7X7X7X7X7X",
"7X7X7X7X7X7X7X7X7X7X7X7X    % & & % .   7X7X7X7X7X7X7X7X7X7X7X7X"
};
