/* XPM */
static char *result[] = {
/* columns rows colors chars-per-pixel */
"64 64 244 2 ",
"   c #0C0F2B",
".  c #0D0E26",
"X  c #0D112C",
"o  c #0A1331",
"O  c #091B36",
"+  c #091E3A",
"@  c #081635",
"#  c #101433",
"$  c #111A35",
"%  c #121D39",
"&  c #101438",
"*  c #141037",
"=  c #0B223C",
"-  c #13223D",
";  c #15283F",
":  c #140F42",
">  c #1B0F43",
",  c #1A0F4A",
"<  c #0C1146",
"1  c #091C4B",
"2  c #0B1648",
"3  c #131143",
"4  c #15134B",
"5  c #1B114D",
"6  c #161648",
"7  c #0D1455",
"8  c #0A1D54",
"9  c #0B1B5D",
"0  c #0E155E",
"q  c #141153",
"w  c #1B1254",
"e  c #19135C",
"r  c #151A58",
"t  c #100F4D",
"y  c #270D59",
"u  c #24115C",
"i  c #211154",
"p  c #210F47",
"a  c #0C2548",
"s  c #152742",
"d  c #152B45",
"f  c #152D48",
"g  c #1A334D",
"h  c #17314C",
"j  c #0B2354",
"k  c #0D2D5B",
"l  c #0C2959",
"z  c #122856",
"x  c #0E335E",
"c  c #12355C",
"v  c #163655",
"b  c #0C1964",
"n  c #1D136C",
"m  c #171666",
"M  c #0C1C78",
"N  c #1D1373",
"B  c #191779",
"V  c #241377",
"C  c #2C116F",
"Z  c #0B2B64",
"A  c #0C2C6C",
"S  c #0A2464",
"D  c #152469",
"F  c #0D3568",
"G  c #143A65",
"H  c #09267B",
"J  c #152B79",
"K  c #0B3776",
"L  c #133875",
"P  c #174669",
"I  c #134474",
"U  c #154C7D",
"Y  c #144777",
"T  c #18547C",
"R  c #134777",
"E  c #16168B",
"W  c #0C1D93",
"Q  c #121C9A",
"!  c #0A1E8F",
"~  c #290E8B",
"^  c #231487",
"/  c #351089",
"(  c #092887",
")  c #1A2589",
"_  c #0A388A",
"`  c #123788",
"'  c #0A2597",
"]  c #132698",
"[  c #0E389A",
"{  c #181CA2",
"}  c #1E1EB1",
"|  c #271BBD",
" . c #3915B7",
".. c #3514A9",
"X. c #0D2CAB",
"o. c #1527A6",
"O. c #0A39AA",
"+. c #0D33B6",
"@. c #1231B4",
"#. c #3326BD",
"$. c #2A2CBB",
"%. c #252197",
"&. c #461094",
"*. c #490CAD",
"=. c #550EA9",
"-. c #470CB4",
";. c #5A0DB7",
":. c #4713B9",
">. c #5415BD",
",. c #620CBE",
"<. c #0D4488",
"1. c #134786",
"2. c #165886",
"3. c #0C4896",
"4. c #124A99",
"5. c #135996",
"6. c #0E579E",
"7. c #186A95",
"8. c #0849A9",
"9. c #0B59B9",
"0. c #0F58AE",
"q. c #1262A2",
"w. c #1269A8",
"e. c #136CAD",
"r. c #3E1AC7",
"t. c #3919DA",
"y. c #281DC7",
"u. c #1A28C9",
"i. c #1637C9",
"p. c #173AD6",
"a. c #0D3AC1",
"s. c #2829C5",
"d. c #3826C8",
"f. c #2724DA",
"g. c #332AD1",
"h. c #2A39D7",
"j. c #3636D6",
"k. c #2639CF",
"l. c #3B1CE1",
"z. c #1D3DE8",
"x. c #2B29E3",
"c. c #3525E3",
"v. c #2537E6",
"b. c #5B0DC5",
"n. c #4716C4",
"m. c #5617C8",
"M. c #4D0ED6",
"N. c #540DD5",
"B. c #5A0BD2",
"V. c #4713DB",
"C. c #5714DA",
"Z. c #450ECB",
"A. c #630DC4",
"S. c #6215C4",
"D. c #6110D4",
"F. c #4528CD",
"G. c #472DD4",
"H. c #5525D3",
"J. c #4D28CD",
"K. c #431FE1",
"L. c #0D59C3",
"P. c #125AC8",
"I. c #1747DB",
"U. c #0E52D4",
"Y. c #1253DE",
"T. c #155AD9",
"R. c #0F48CB",
"E. c #2344D7",
"W. c #3443DA",
"Q. c #2148CD",
"!. c #0C65C7",
"~. c #1167CA",
"^. c #0F75CB",
"/. c #1374CC",
"(. c #136AD8",
"). c #1477D7",
"_. c #0F76D4",
"`. c #134CE3",
"'. c #1947E5",
"]. c #125CE4",
"[. c #155DEA",
"{. c #1D5BEE",
"}. c #1655E6",
"|. c #2447E6",
" X c #2153EE",
".X c #2258E9",
"XX c #0F69E4",
"oX c #1163E5",
"OX c #116BE6",
"+X c #1364EA",
"@X c #1C63EE",
"#X c #136CEA",
"$X c #1C6CEE",
"%X c #0F78E7",
"&X c #1274EA",
"*X c #1A73ED",
"=X c #127BEB",
"-X c #1677E9",
";X c #2063EC",
":X c #3A78DE",
">X c #1A86B2",
",X c #1486C5",
"<X c #1893CE",
"1X c #1386D7",
"2X c #1997D9",
"3X c #0F83DC",
"4X c #249EDB",
"5X c #3697D7",
"6X c #298DC0",
"7X c #1DA8D5",
"8X c #22B3D4",
"9X c #27A7D0",
"0X c #0F82E7",
"qX c #1183EB",
"wX c #118DEC",
"eX c #1688EA",
"rX c #1393EE",
"tX c #129CEF",
"yX c #1595E8",
"uX c #149BF1",
"iX c #1693F0",
"pX c #1790EF",
"aX c #2389F0",
"sX c #308AEA",
"dX c #16A4EB",
"fX c #1AB6E8",
"gX c #14A3F1",
"hX c #14ABF1",
"jX c #18ACF1",
"kX c #15B3F2",
"lX c #16BBF3",
"zX c #1ABCF4",
"xX c #19B5F3",
"cX c #21A2E5",
"vX c #4496D8",
"bX c #4598E5",
"nX c #428BE5",
"mX c #1AC4F5",
"MX c #1CC9F6",
"NX c #17C0F4",
"BX c #20C7F5",
"VX c #51C7E3",
"CX c #4AC4E5",
"ZX c None",
/* pixels */
"ZXZXZXZXZXZXZXZXZXZXZXZXZXZXZXZXZXZXZXZXZXZXZXZXZXZXZXg d f f f f d f s s ZXZXZXZXZXZXZXZXZXZXZXZXZXZXZXZXZXZXZXZXZXZXZXZXZXZXZX",
"ZXZXZXZXZXZXZXZXZXZXZXZXZXZXZXZXZXZXZXZXZXZXg g g g g g G P I Y I I G c d d f d s ZXZXZXZXZXZXZXZXZXZXZXZXZXZXZXZXZXZXZXZXZXZXZX",
"ZXZXZXZXZXZXZXZXZXZXZXZXZXZXZXZXZXZXZXZXg g g P 2.q.5.5.U P c c c G G R 5.4.4.1.c s d s ZXZXZXZXZXZXZXZXZXZXZXZXZXZXZXZXZXZXZXZX",
"ZXZXZXZXZXZXZXZXZXZXZXZXZXZXZXZXZXZXg g G 7.q.1.c I T U U 1.T U Y U Y R I L G v R 4.1.z s s ZXZXZXZXZXZXZXZXZXZXZXZXZXZXZXZXZXZX",
"ZXZXZXZXZXZXZXZXZXZXZXZXZXZXZXZXg g T w.2.v T 2.T P 2.7.>X<X2X2X2X<X,Xe.5.P v L L L h 1.4.G s s ZXZXZXZXZXZXZXZXZXZXZXZXZXZXZXZX",
"ZXZXZXZXZXZXZXZXZXZXZXZXZXZXg g P w.Y P T T T e.7XzXlXlXlXlXhXhXjXgXjXgXuXuXiX1Xq.v F L c J 4.v s - ZXZXZXZXZXZXZXZXZXZXZXZXZXZX",
"ZXZXZXZXZXZXZXZXZXZXZXZXZXg v w.2.P 2.P 7.fXmXmXmXmXlX2X3X^.!.!.P.!.~._.1XiXiXiXiXpX).1.z J z ` ` s s ZXZXZXZXZXZXZXZXZXZXZXZXZX",
"ZXZXZXZXZXZXZXZXZXZXZXg g Y w.c 2.T 7.BXBXBXmXhX_.9.O.ZXZXZXZXZXZXZXZXZXZX' 8.P.%XaXaXeX*X1.v J z 4.z s - ZXZXZXZXZXZXZXZXZXZXZX",
"ZXZXZXZXZXZXZXZXZXZXg v 5.2.P 2.T fXBXMXmX2X9.8.ZXZXZXZXZXZXZXZXZXZXZXZXZXZXZXZX' O.P.*X-X*X(.G L z ` L - % ZXZXZXZXZXZXZXZXZXZX",
"ZXZXZXZXZXZXZXZXZXg v q.I T P >XMXMXMX2X9.ZXZXZXZXZXZXZXZXZXZXZXZXZXZXZXZXZXZXZXZXZXZXX.P.*X*X*X4.z D D ` - % ZXZXZXZXZXZXZXZXZX",
"ZXZXZXZXZXZXZXZXg g w.P 7.P 8XMXMXfX!.ZXZXZXZXZXZXZXZXZXZXZXZXZXZXZXZXZXZXZXZXZXZXZXZXZXZXX.(.$X;XQ.z J z ` $ $ ZXZXZXZXZXZXZXZX",
"ZXZXZXZXZXZXZXf g q.G 2.P fXMXMX2X8.ZXZXZXZXZXZXZXZXZXZXZXZXZXZXZXZXZXZXZXZXZXZXZXZXZXZXZXZXQ R.;X;XQ.z J r ` % $ ZXZXZXZXZXZXZX",
"ZXZXZXZXZXZXZXh 2.P 7.P BXBXmX^.ZXZXZXZXZXZXZXZXZXZXZXZXZXZXZXZXZXZXZXZXZXZXZXZXZXZXZXZXZXZXZXZX@.;X.XT.6 J D J % ZXZXZXZXZXZXZX",
"ZXZXZXZXZXZXh I 2.T P fXBXmX^.ZXZXZXZXZXZXZXZXZXZXZXZXZXZXZXZXZXZXZXZXZXZXZXZXZXZXZXZXZXZXZXZXZXZXX..X.XQ.s D J z $ ZXZXZXZXZXZX",
"ZXZXZXZXZXf c w.P P 7XMXNX^.ZXZXZXZXZXZXZXZXZXZXZXZXZXZXZXZXZXZXZXZXZXZXZXZXZXZXZXZXZXZXZXZXZXZXZXZXo.|.|.Q.6 r ] % $ ZXZXZXZXZX",
"ZXZXZXZXZXf 6.c 2.>XmXmX^.ZXZXZXZXZXZXZXZXZXZXZXZXZXZXZXZXZXZXZXZXZXZXZXZXZXZXZXZXZXZXZXZXZXZXZXZXZXZX@..X|.o.D 1 ) % ZXZXZXZXZX",
"ZXZXZXZXf P R 2.2.MXMX1XZXZXZXZXZXZX9XVXVXVXVXVX6XZXZXZXZXZXZXZXZXZXZXZXZXZXvXvXbXbXbXnXnXsX:X$.ZXZXZXZX@.|.|.D n D r $ ZXZXZXZX",
"ZXZXZXa f 0.P P fXNXdX9.ZXZXZXZXZXZX8XBXBXMXNXNX/.ZXZXZXZXZXZXZXZXZXZXZXZXbXaX$X$X;X{. X|.|.o.ZXZXZXZXZXZXk.|.k.6 r ) O ZXZXZXZX",
"ZXZXZXf R F 1.>XNXNX!.ZXZXZXZXZXZXZX8XBXNXNXlXkX/.ZXZXZXZXZXZXZXZXZXZXZX5XaX*X@X;X{. X X|.{ ZXZXZXZXZXZXZXo.W.v.) D r r # ZXZXZX",
"ZXZXZXf 6.P P kXNX1XZXZXZXZXZXZXZXZX8XBXlXlXkXkX~.ZXZXZXZXZXZXZXZXZXZX5XaX*X*X$X{.{. X|.{ ZXZXZXZXZXZXZXZXZXs.h.j.6 r ) $ ZXZXZX",
"ZXZX= I K T >XkXkXL.ZXZXZXZXZXZXZXZX8XmXkXlXkXhX~.ZXZXZXZXZXZXZXZXZX5XaX*X*X$X@X{. X|.{ ZXZXZXZXZXZXZXZXZXZX] h.j.) D m 6 X ZXZX",
"ZXZXa 6.F G hXlX1XZXZXZXZXZXZXZXZXZX8XzXfXkXhXgX~.ZXZXZXZXZXZXZXZX5XaX=X&X$X@X{. X|.{ ZXZXZXZXZXZXZXZXZXZXZXZX$.j.s.5 6 J # ZXZX",
"ZX; a 3.R 7.kXkXL.ZXZXZXZXZXZXZXZXZX8XfXkXhXhXtX~.ZXZXZXZXZXZXZX5XaXeX*X*X@X@X{.'.{ ZXZXZXZXZXZXZXZXZXZXZXZXZXo.j.g.e r E $ X ZX",
"ZXd I F R ,XhX2XZXZXZXZXZXZXZXZXZXZX7XkXhXhXgXtXP.ZXZXZXZXZXZX4XiX=X=X*X#X@X{.'.Q ZXZXZXZXZXZXZXZXZXZXZXZXZXZXZXs.g.%.r r 6 X ZX",
"ZXa 6.x c kXhX_.ZXZXZXZXZXZXZXZXZXZX7XjXhXtXtXrXP.ZXZXZXZXZX4XpXqX=X&X$X+X{.'.Q ZXZXZXZXZXZXZXZXZXZXZXZXZXZXZXZX$.g.d.6 3 m O ZX",
"ZXd 3.I T hXhXL.ZXZXZXZXZXZXZXZXZXZX7XjXtXtXtXtXL.ZXZXZXZX4XiXqX=X*X#X$X[.}.Q ZXZXZXZXZXZXZXZXZXZXZXZXZXZXZXZXZXo.g.g.6 r B $ ZX",
"= a <.I w.hXyXZXZXZXZXZXZXZXZXZXZXZX<XjXtXtXrXwXP.ZXZXZX4XiXqX=X&X#X+X[.`.Q ZXZXZXZXZXZXZXZXZXZXZXZXZXZXZXZXZXZXZXg.d.V w B X ZX",
"= Z F I ,XgX3XZXZXZXZXZXZXZXZXZXZXZX<XjXtXtXwX%X[ ZXZX4XiXqX=X&X*X#X@X`.W ZXZXZXZXZXZXZXZXZXZXZXZXZXZXZXZXZXZXZXZXd.r.^ w m & X ",
"= K k I 2XgX_.ZXZXZXZXZXZXZXZXZXZXZX<XgXtXwX0X[ ZXZX2XiXqXqX&X&X#X[.Y.! ZXZXZXZXZXZXZXZXZXZXZXZXZXZXZXZXZXZXZXZXZXs.n.%.w 4 6 X ",
"= <.k F gXtX^.ZXZXZXZXZXZXZXZXZXZXZX<XuXyX%X_ ZXZX2XrXqX=X=X&X#X+XY.' ZXZXZXZXZXZXZXZXZXZXZXZXZXZXZXZXZXZXZXZXZXZX#.F. .w 6 r X ",
"= <.k x tXtX!.ZXZXZXZXZXZXZXZXZXZXZX<XtX0X[ ZXZX2XrXqXqX=X&X#X+XY.! ZXZXZXZXZXZXZXZXZXZXZXZXZXZXZXZXZXZXZXZXZXZXZX#.r.d.5 3 e X ",
"= 3.k x tXtX!.ZXZXZXZXZXZXZXZXZXZXZX<XwX3.ZXZX2XiXeXqX=X&X#X#X[.i.ZXZXZXZXZXZXZXZXZXZXZXZXZXZXZXZXZXZXZXZXZXZXZXZX#.n. ., : 0 X ",
"= <.x x tXtXP.ZXZXZXZXZXZXZXZXZXZXZX,X8.ZXZXdXrXwX=X=X%X#X+X[.}.'.E.ZXZXZXZXZXZXZXZXZXZXZXZXZXZXZXZXZXZXZXZXZXZXZX#.n.r.4 3 m   ",
"= _ x x tXtXP.ZXZXZXZXZXZXZXZXZXZXZXZXZXZXdXrXqX=X=X&X#X+X[.[. X'.|.|.ZXZXZXZXZXZXZXZXZXZXZXZXZXZXZXZXZXZXZXZXZXZX#.n.:.5 * e   ",
"= K l x wXwX!.ZXZXZXZXZXZXZXZXZXZXZXZXZXcXrXqX0X%X%X#XXX+X[.}.'.'.z.v.|.ZXZXZXZXZXZXZXZXZXZXZXZXZXZXZXZXZXZXZXZXZXd.:. .5 : q X ",
"= K j F wXwX~.ZXZXZXZXZXZXZXZXZXZXZXZXcXwXqX=X%X%X#X+XU.' `.'.'.z.v.v.v.j.ZXZXZXZXZXZXZXZXZXZXZXZXZXZXZXZXZXZXZXZXF.n.&.w 5 6 . ",
"+ Z k K ^.wX(.ZXZXZXZXZXZXZXZXZXZXZX2XiX0X=X=X&X#X+XU.( ZX' p.v.v.v.v.x.c.W.ZXZXZXZXZXZXZXZXZXZXZXZXZXZXZXZXZXZXZXn.n./ 5 m * . ",
"O a K F q.wX).ZXZXZXZXZXZXZXZXZXZXZX2XwX=X%X&XXX+XU.( ZXZXZX' p.v.v.x.x.c.c.j.ZXZXZXZXZXZXZXZXZXZXZXZXZXZXZXZXZXZXm.b.C 5 N X ZX",
"ZX+ _ A 1.qXqX8.ZXZXZXZXZXZXZXZXZXZX2XqX%X&XXXoXU.( ZXZXZXZXZXW f.x.x.x.c.c.c.G.ZXZXZXZXZXZXZXZXZXZXZXZXZXZXZXZXd.m.>.5 5 N X ZX",
"ZXa _ x k =XqXL.ZXZXZXZXZXZXZXZXZXZX1X=X%XOX+XoXX.ZXZXZXZXZXZXZX! f.x.c.l.c.c.K.G.ZXZXZXZXZXZXZXZXZXZXZXZXZXZXZXF.m.>.> : n X ZX",
"ZX+ K j Z ).0X(.ZXZXZXZXZXZXZXZXZXZX1X0XOXoXoX].+.ZXZXZXZXZXZXZXZXE f.f.l.l.l.V.V.G.ZXZXZXZXZXZXZXZXZXZXZXZXZXZXm.>.&.w q ,   ZX",
"ZX+ j K Z 3.%X%XZXZXZXZXZXZXZXZXZXZX/.-XOX[.].}.+.ZXZXZXZXZXZXZXZXZXE t.t.t.t.V.V.C.H.ZXZXZXZXZXZXZXZXZXZXZXZXd.b.;.y i N X . ZX",
"ZXZX+ _ Z z &X%X~.ZXZXZXZXZXZXZXZXZX).&X].].}.`.X.ZXZXZXZXZXZXZXZXZXZXE y.t.t.V.V.C.C.C.ZXZXZXZXZXZXZXZXZXZXZXH.b.;.* > V X ZXZX",
"ZXZX+ A a A 9.%XOXZXZXZXZXZXZXZXZXZX/.$X].}.`.`.@.ZXZXZXZXZXZXZXZXZXZXZX~ t.t.V.M.V.C.C.H.ZXZXZXZXZXZXZXZXZXG.S.b./ y m &   ZXZX",
"ZXZXZX+ _ Z F OX%XP.ZXZXZXZXZXZXZXZX!.+X].`.`.`.X.ZXZXZXZXZXZXZXZXZXZXZXZX~ r.V.M.M.N.N.B.m.ZXZXZXZXZXZXZXZXH.A.;., 5 V # ZXZXZX",
"ZXZXZX+ K 1 Z 9.OXOXP.ZXZXZXZXZXZXZX!.oX`.`.`.p.X.ZXZXZXZXZXZXZXZXZXZXZXZXZX~ Z.M.M.N.B.B.D.S.ZXZXZXZXZXZXG.A.,.&.u w w   ZXZXZX",
"ZXZXZX+ + _ Z l OXOX(.ZXZXZXZXZXZXZXL.[.`.p.z.p.X.ZXZXZXZXZXZXZXZXZXZXZXZXZXZX~ Z.N.N.B.B.B.D.S.ZXZXZXZXZXS.,.,.* > V o ZXZXZXZX",
"ZXZXZXZX+ A j Z _ oX+X(.ZXZXZXZXZXZXL.R.a.a.+.+.] ZXZXZXZXZXZXZXZXZXZXZXZXZXZXZX~  . .-.-.*.*.=.=.ZXZXZXH.,.,.y u n > X ZXZXZXZX",
"ZXZXZXZXZX+ _ a j L.oXXXP.ZXZXZXZXZXZXZXZXZXZXZXZXZXZXZXZXZXZXZXZXZXZXZXZXZXZXZXZXZXZXZXZXZXZXZXZXZXZXH.,.,.&.p > V # ZXZXZXZXZX",
"ZXZXZXZXZXO 1 ( l j T.].oXT.ZXZXZXZXZXZXZXZXZXZXZXZXZXZXZXZXZXZXZXZXZXZXZXZXZXZXZXZXZXZXZXZXZXZXZXZXG.S.,.=.> > ^ X X ZXZXZXZXZX",
"ZXZXZXZXZXZX+ S S A S Y.Y.oXT.ZXZXZXZXZXZXZXZXZXZXZXZXZXZXZXZXZXZXZXZXZXZXZXZXZXZXZXZXZXZXZXZXZXZXG.S.,.;.p i V & X ZXZXZXZXZXZX",
"ZXZXZXZXZXZXZXO H a A Z Y.Y.].T.ZXZXZXZXZXZXZXZXZXZXZXZXZXZXZXZXZXZXZXZXZXZXZXZXZXZXZXZXZXZXZXZXG.,.,.,.p y e e X ZXZXZXZXZXZXZX",
"ZXZXZXZXZXZXZX+ O ( 1 A k U.`.].T.ZXZXZXZXZXZXZXZXZXZXZXZXZXZXZXZXZXZXZXZXZXZXZXZXZXZXZXZXZXZXJ.,.,.;.p u 5 n X ZXZXZXZXZXZXZXZX",
"ZXZXZXZXZXZXZXZXO O _ 1 A j R.I.`.Y.].ZXZXZXZXZXZXZXZXZXZXZXZXZXZXZXZXZXZXZXZXZXZXZXZXZXZXj.m.,.,.=.p u 4 V X . ZXZXZXZXZXZXZXZX",
"ZXZXZXZXZXZXZXZXZXO O ( 8 S 1 O.I.I.I.T.].ZXZXZXZXZXZXZXZXZXZXZXZXZXZXZXZXZXZXZXZXZXZXW.J.>.;.;.&.* u i n X . ZXZXZXZXZXZXZXZXZX",
"ZXZXZXZXZXZXZXZXZXZXO O H S j 8 H R.p.p.I.Y.}.ZXZXZXZXZXZXZXZXZXZXZXZXZXZXZXZXZXZXW.G.>.-.;.;.y > > n m X . ZXZXZXZXZXZXZXZXZXZX",
"ZXZXZXZXZXZXZXZXZXZXZXO O j ( 2 S 1 ( p.p.i.p.p.I.}.ZXZXZXZXZXZXZXZXZXZXZXZXW.j.d.-.-.;.;.C > i : V , X ZXZXZXZXZXZXZXZXZXZXZXZX",
"ZXZXZXZXZXZXZXZXZXZXZXZXZXO + ( b 1 S 2 ( i.i.u.u.u.k.p.p.E.I.p.E.E.E.g.g.d. . .-.-.-.C : u : n V #   ZXZXZXZXZXZXZXZXZXZXZXZXZX",
"ZXZXZXZXZXZXZXZXZXZXZXZXZXZXO @ 8 ( 8 8 b 2 9 ' u.u.u.u.s.u.u.| s.| | y. . . .*./ i : q , q ^ :     ZXZXZXZXZXZXZXZXZXZXZXZXZXZX",
"ZXZXZXZXZXZXZXZXZXZXZXZXZXZXZXZX@ @ 9 ( b < 9 9 2 1 m E { } | | | | ..~ ^ n , & q q : m B t . . ZXZXZXZXZXZXZXZXZXZXZXZXZXZXZXZX",
"ZXZXZXZXZXZXZXZXZXZXZXZXZXZXZXZXZXZX@ o 1 H M 9 & 7 7 7 7 7 < < < t q q t t q < q N N &     ZXZXZXZXZXZXZXZXZXZXZXZXZXZXZXZXZXZX",
"ZXZXZXZXZXZXZXZXZXZXZXZXZXZXZXZXZXZXZXZXo @ o 1 M M M M 7 < < < < < < t m N N m 3       ZXZXZXZXZXZXZXZXZXZXZXZXZXZXZXZXZXZXZXZX",
"ZXZXZXZXZXZXZXZXZXZXZXZXZXZXZXZXZXZXZXZXZXZXZXX o o   @ < 0 0 b 0 0 7 t o o       ZXZXZXZXZXZXZXZXZXZXZXZXZXZXZXZXZXZXZXZXZXZXZX",
"ZXZXZXZXZXZXZXZXZXZXZXZXZXZXZXZXZXZXZXZXZXZXZXZXZXZXZX  o     o           ZXZXZXZXZXZXZXZXZXZXZXZXZXZXZXZXZXZXZXZXZXZXZXZXZXZXZX"
};
